<svg xmlns="http://www.w3.org/2000/svg" width="1100" height="380" viewBox="0 0 1100 380"><rect width="1100" height="380" rx="12" fill="#fffdf8"/><g font-family="Arial,sans-serif" fill="#172433"><text x="60" y="48" font-size="28">Baseline · 7 nodes</text><text x="620" y="48" font-size="28">Structured · 4 nodes</text></g><g stroke="#526477" stroke-width="5" fill="none"><path d="M270 95 150 190 90 290 M150 190 210 290 M270 95 390 190 330 290 M390 190 450 290"/><path d="M800 95 700 190 650 290 M800 95 920 190"/></g><g fill="#fffdf8" stroke="#183d65" stroke-width="5"><circle cx="270" cy="95" r="18"/><circle cx="150" cy="190" r="18"/><circle cx="390" cy="190" r="18"/><circle cx="90" cy="290" r="18"/><circle cx="210" cy="290" r="18"/><circle cx="330" cy="290" r="18"/><circle cx="450" cy="290" r="18"/><circle cx="800" cy="95" r="18"/><circle cx="700" cy="190" r="18"/><circle cx="920" cy="190" r="18"/><circle cx="650" cy="290" r="18"/></g><g fill="#183d65"><circle cx="90" cy="290" r="10"/><circle cx="650" cy="290" r="10"/></g><g fill="#172433" font-family="Arial,sans-serif" font-size="24"><text x="60" y="350">● retained result</text><text x="620" y="350">● same retained result</text></g></svg>